<svg xmlns="http://www.w3.org/2000/svg" viewBox="0 0 264.99 145.27"><defs><style>.cls-1{fill:#333;}</style></defs><title>community</title><g id="Layer_2" data-name="Layer 2"><g id="Layer_1-2" data-name="Layer 1"><path class="cls-1" d="M98.75,107.5A53.75,53.75,0,1,1,152.5,53.75,53.81,53.81,0,0,1,98.75,107.5Zm0-98.5A44.75,44.75,0,1,0,143.5,53.75,44.8,44.8,0,0,0,98.75,9Z"/><path class="cls-1" d="M61.75,144.5h-9a46,46,0,0,1,46-46v9A37,37,0,0,0,61.75,144.5Z"/><path class="cls-1" d="M144.29,144.5h-9a36.66,36.66,0,0,0-11.64-27l6.17-6.55A46.19,46.19,0,0,1,144.29,144.5Z"/><path class="cls-1" d="M46,104.54a39.58,39.58,0,0,1,0-79.09v-8A47.54,47.54,0,0,0,29.33,108.9,40.73,40.73,0,0,0,6.86,145.27h8A32.77,32.77,0,0,1,46,112.58Z"/><rect class="cls-1" x="77" y="53.27" width="9" height="15"/><rect class="cls-1" x="113" y="53.27" width="9" height="15"/><path class="cls-1" d="M231.49,99.12,206.55,74.18a29.25,29.25,0,0,1-7.18-11.49c-2.72-8.34-1-16.19,4.95-22.1,9.42-9.42,20.64-6.38,27.19-2.34,6.59-4,17.87-7.08,27.28,2.34,5.91,5.91,7.67,13.76,4.95,22.1a29.25,29.25,0,0,1-7.18,11.49Zm-12.7-55.74A11.19,11.19,0,0,0,210.68,47c-3.54,3.54-4.44,7.78-2.76,12.95a20.22,20.22,0,0,0,5,7.92l18.6,18.6,18.7-18.61a20.2,20.2,0,0,0,5-7.91c1.69-5.17.78-9.4-2.76-12.95-7.77-7.77-17-.57-18.05.28l-2.9,2.38-2.88-2.41C227.94,46.66,223.77,43.38,218.79,43.38Z"/><polygon class="cls-1" points="201 80.77 162 80.77 162 71.77 193 71.77 201 80.77"/></g></g></svg>