<svg xmlns="http://www.w3.org/2000/svg" viewBox="0 0 254.5 158.21"><defs><style>.cls-1{fill:#333;}</style></defs><title>experience</title><g id="Layer_2" data-name="Layer 2"><g id="Layer_1-2" data-name="Layer 1"><path class="cls-1" d="M9,119.71H0a33.54,33.54,0,0,1,33.5-33.5h90v9h-90A24.53,24.53,0,0,0,9,119.71Z"/><path class="cls-1" d="M54,120.21A22.51,22.51,0,0,1,33.27,89l1.16-2.75H76.5v11.5A22.53,22.53,0,0,1,54,120.21Zm-13.27-25a13.5,13.5,0,1,0,26.77,2.5v-2.5Z"/><path class="cls-1" d="M102,120.21a22.53,22.53,0,0,1-22.5-22.5V86.21h45v11.5A22.53,22.53,0,0,1,102,120.21Zm-13.5-25v2.5a13.5,13.5,0,0,0,27,0v-2.5Z"/><path class="cls-1" d="M75,158.21v-9a25.53,25.53,0,0,0,25.5-25.5h9A34.54,34.54,0,0,1,75,158.21Z"/><path class="cls-1" d="M16.5,80.71h-9c0-28.4,20.86-51.5,46.5-51.5h66v9H54C33.32,38.21,16.5,57.28,16.5,80.71Z"/><path class="cls-1" d="M93,74.21v-9a36.54,36.54,0,0,0,36.5-36.5h9A45.55,45.55,0,0,1,93,74.21Z"/><path class="cls-1" d="M225.43,58.27l-18.93-10-18.94,10,3.62-21.08L175.86,22.26,197,19.18,206.5,0,216,19.18l21.17,3.08L221.82,37.19ZM195.2,28.54,200.85,34l-1.33,7.77,7-3.67,7,3.67L212.15,34l5.65-5.51L210,27.41l-3.49-7.07L203,27.41Z"/><polygon class="cls-1" points="230 29.21 217.11 29.21 212.15 34.05 212.86 38.21 221.99 38.21 221.82 37.19 230 29.21"/><polygon class="cls-1" points="206.38 38.21 206.62 38.21 206.5 38.15 206.38 38.21"/><polygon class="cls-1" points="191.01 38.21 200.14 38.21 200.85 34.05 195.89 29.21 183 29.21 191.18 37.19 191.01 38.21"/><polygon class="cls-1" points="238.6 29.21 229.37 38.21 245.5 38.21 245.5 86.21 184.82 86.21 160.08 107.29 165.92 114.14 188.14 95.21 254.5 95.21 254.5 29.21 238.6 29.21"/><polygon class="cls-1" points="167.5 38.21 183.63 38.21 174.4 29.21 158.5 29.21 158.5 86.96 167.5 86.96 167.5 38.21"/></g></g></svg>