<svg xmlns="http://www.w3.org/2000/svg" viewBox="0 0 264.74 140.5"><defs><style>.cls-1{fill:#333;}.cls-2{fill:none;stroke:#333;stroke-miterlimit:10;stroke-width:7px;}</style></defs><title>Asset 4</title><g id="Layer_2" data-name="Layer 2"><g id="Layer_1-2" data-name="Layer 1"><polygon class="cls-1" points="41.68 140.5 0.64 140.5 0.64 109.08 9.64 109.08 9.64 131.5 32.68 131.5 32.68 109.08 41.68 109.08 41.68 140.5"/><polygon class="cls-1" points="29.34 91 9 91 9 9 29.1 9 30.54 15.38 39.76 15.38 36.3 0 0 0 0 100 29.34 100 29.34 91"/><polygon class="cls-1" points="34.82 34.38 44.04 34.38 42.07 25.63 32.85 25.63 34.82 34.38"/><polygon class="cls-1" points="48.33 53.38 46.35 44.63 37.13 44.63 39.1 53.38 48.33 53.38"/><polygon class="cls-1" points="45.69 82.63 47.44 90.38 56.66 90.38 54.92 82.63 45.69 82.63"/><polygon class="cls-1" points="41.41 63.63 43.38 72.38 52.61 72.38 50.64 63.63 41.41 63.63"/><path class="cls-1" d="M156,140.5H113.55a12.49,12.49,0,0,1-9.58-4.72c-4.09-5.3-2.75-12.76-2.58-13.59l8.83,1.74c-.26,1.38-.38,4.74.88,6.36A3.56,3.56,0,0,0,114,131.5h42s3.8.08,6.13-2.19c1.41-1.37,2.1-3.42,2.1-6.26s-.66-4.63-2-5.88c-2.12-1.93-5.75-2-6.61-2l-.41,0h-16.5l11-27.48,19.76,0c.89.06,3.51-.22,4.78-5.2l3.65-17a3.17,3.17,0,0,0-.31-1.81A2.25,2.25,0,0,0,176,63.5H86.1v-9H176A10.34,10.34,0,0,1,184.32,58c3.11,3.68,2.4,8.6,2.31,9.15l0,.2-3.73,17.4c-2.65,10.6-10.41,12.51-14.52,12H155.67l-3.79,9.48h3c1.53-.1,8.28-.25,13.26,4.29,2.26,2.07,5,5.92,5,12.53,0,5.38-1.66,9.69-4.92,12.81C163.73,140.15,157.84,140.5,156,140.5Z"/><polygon class="cls-2" points="198.67 67.62 195.75 81.18 209.3 81.18 212.22 67.62 198.67 67.62"/><polygon class="cls-1" points="222.85 69.47 220.38 80.56 230.24 80.56 232.71 69.47 222.85 69.47"/><polygon class="cls-1" points="237.63 69.47 235.17 80.56 246.26 80.56 248.72 69.47 237.63 69.47"/><polygon class="cls-1" points="253.65 69.47 251.19 80.56 262.27 80.56 264.74 69.47 253.65 69.47"/></g></g></svg>